# xmcd CD database file
#
# Track frame offsets:
#	150
#	12531
#	24080
#	36383
#	47126
#	56543
#	66896
#	77680
#	88657
#	98282
#	110206
#	122613
#	129014
#	137781
#	143974
#	154353
#	167462
#	175423
#	184086
#	192203
#	207236
#	216419
#	224068
#	232523
#	241238
#	252501
#	260644
#	272531
#
# Disc length: 3744 seconds
#
# Revision: 0
# Processed by: cddbd v1.5.2PL0 Copyright (c) Steve Scherf et al.
# Submitted via: CDex 1.51
#
DISCID=930e9e1c
DTITLE=Gene Autry - Gene Autry - The Country Biography
DYEAR=2007
DGENRE=Country
TTITLE0=My Old Kentucky Home
TTITLE1=Vaya Con Dios
TTITLE2=Missouri Waltz
TTITLE3=You're the Only Good Thing
TTITLE4=There's No Back Door From Heaven
TTITLE5=San Antonio Rose
TTITLE6=Trouble Mind
TTITLE7=You're the Lonely Star
TTITLE8=The West, A Nest, And You
TTITLE9=Dixie Canon Ball
TTITLE10=You Belong To My Heart
TTITLE11=My Adobe Hacienda
TTITLE12=In A Little Spanish Town
TTITLE13=Cowboy Blues
TTITLE14=Down In The Valley
TTITLE15=Under Fiesta Stars
TTITLE16=Don't Bite the Hand That's Feeding You (Live)
TTITLE17=A Boy From Texas A Girl From Tennessee
TTITLE18=Kentucky Baby
TTITLE19=When The Day Is Done
TTITLE20=It Happened In Monteray
TTITLE21=Rancho Pillow
TTITLE22=Goodbye Little Darling
TTITLE23=You Are My Sunshine
TTITLE24=Lonely River
TTITLE25=The Gay Ranchero
TTITLE26=I Hand My Head And Cry
TTITLE27=Tweedle O Twill
EXTD=YEAR: 2007
EXTT0=
EXTT1=
EXTT2=
EXTT3=
EXTT4=
EXTT5=
EXTT6=
EXTT7=
EXTT8=
EXTT9=
EXTT10=
EXTT11=
EXTT12=
EXTT13=
EXTT14=
EXTT15=
EXTT16=
EXTT17=
EXTT18=
EXTT19=
EXTT20=
EXTT21=
EXTT22=
EXTT23=
EXTT24=
EXTT25=
EXTT26=
EXTT27=
PLAYORDER=
